<?xml version="1.0" encoding="iso-8859-1"?>
<!-- Generator: Adobe Illustrator 16.0.0, SVG Export Plug-In . SVG Version: 6.00 Build 0)  -->
<!DOCTYPE svg PUBLIC "-//W3C//DTD SVG 1.1//EN" "http://www.w3.org/Graphics/SVG/1.1/DTD/svg11.dtd">
<svg version="1.1" id="Capa_1" xmlns="http://www.w3.org/2000/svg" xmlns:xlink="http://www.w3.org/1999/xlink" x="0px" y="0px"
	 width="363.025px" height="363.024px" viewBox="0 0 363.025 363.024" style="enable-background:new 0 0 363.025 363.024;"
	 xml:space="preserve">
	 
<g>
	<path id="scroll" style="fill:#ff4444;" d="M363.025,181.513C363.025,81.43,281.595,0,181.512,0C81.422,0,0,81.43,0,181.513
		c0,100.088,81.422,181.512,181.512,181.512C281.595,363.024,363.025,281.601,363.025,181.513z M11.71,181.513
		C11.71,87.88,87.886,11.71,181.512,11.71c93.633,0,169.803,76.17,169.803,169.803c0,91.659-73.02,166.543-163.936,169.653
		l0.366-189.941l32.958,32.959l8.28-8.28l-47.062-47.064l-47.883,47.889l8.28,8.279l33.725-33.725l-0.375,189.895
		C84.744,348.066,11.71,273.184,11.71,181.513z"/>
</g>
<g>
</g>
<g>
</g>
<g>
</g>
<g>
</g>
<g>
</g>
<g>
</g>
<g>
</g>
<g>
</g>
<g>
</g>
<g>
</g>
<g>
</g>
<g>
</g>
<g>
</g>
<g>
</g>
<g>
</g>
</svg>
